# xmcd
#
# Track frame offsets:
# 150
# 4408
# 28529
# 79872
# 89851
# 99292
# 113888
# 135060
# 140060
# 145709
# 164369
# 173542
# 191086
# 202102
# 228527
# 241688
# 260650
# 269955
# 305247
#
# Disc length: 4125 seconds
#
# Revision: 0
# Processed by: cddbd v1.4PL0 Copyright (c) Steve Scherf et al.
# Submitted via: Audion 2.5.0 (http://www.panic.com/audion/)
#
DISCID=14101b13
DTITLE=siedmiogród - domuk-damuc
DYEAR=1900
DGENRE=
TTITLE0=s
TTITLE1=s
TTITLE2=s
TTITLE3=s
TTITLE4=s
TTITLE5=s
TTITLE6=s
TTITLE7=s
TTITLE8=s
TTITLE9=s
TTITLE10=s
TTITLE11=s
TTITLE12=s
TTITLE13=s
TTITLE14=s
TTITLE15=s
TTITLE16=s
TTITLE17=s
TTITLE18=wf
EXTD=
EXTT0=
EXTT1=
EXTT2=
EXTT3=
EXTT4=
EXTT5=
EXTT6=
EXTT7=
EXTT8=
EXTT9=
EXTT10=
EXTT11=
EXTT12=
EXTT13=
EXTT14=
EXTT15=
EXTT16=
EXTT17=
EXTT18=
PLAYORDER=
